<?xml version="1.0" encoding="utf-8"?>
<!-- Generator: Adobe Illustrator 27.4.0, SVG Export Plug-In . SVG Version: 6.00 Build 0)  -->
<svg version="1.1" id="Layer_1" xmlns="http://www.w3.org/2000/svg" xmlns:xlink="http://www.w3.org/1999/xlink" x="0px" y="0px"
	 viewBox="0 0 45.8 45.8" style="enable-background:new 0 0 45.8 45.8;" xml:space="preserve">
<style type="text/css">
	.st0{fill:#ED1A4F;stroke:#000000;stroke-miterlimit:10;}
	.st1{stroke:#000000;stroke-miterlimit:10;}
	.st2{fill:none;stroke:#000000;stroke-width:1.25;stroke-miterlimit:10;}
</style>
<path class="st0" d="M22.9,22.9"/>
<path class="st1" d="M22.9,22.9"/>
<path d="M22,27v-8.6c0,0,0.6-0.5,3-0.4c2.4,0.1,5.2,0.4,6.4,1.5c0.9,0.8,1.2,1.6,1.1,3.2c0,1.6-2.1,3.5-4.8,5
	c-2.7,1.6-6.3,1.1-6.3,1.1s-6.6-0.7-7.2-9c-0.3-4,0.8-6.4,1.7-7.8c0,0,2.2-3.5,7.3-3.3c0,0,3.7,0.1,6.8,3.7l2.4,0c0,0-3.1-6-9.6-6.1
	c-1.9,0-4.9,0.2-7.2,1.4c0,0-5.9,3.1-5.8,9.8c0.2,6.7,4.1,10.5,8.7,12l0,7.1c0,0,0,0,0,0.1l0,2.8h9.4c0,0,7.5,0.4,7.7-6.4
	c0,0,0.4-4.1-5-5.2c0,0,4.3-1.2,4-5.1s-3.7-5.1-3.7-5.1s-1.9-0.9-5.1-0.8l-7.2,0v9.3c0,0,1.3,1,3.3,1.3L22,27z M28.2,38.1
	c0,0-4.1,0.6-6.2-0.2V30c0,0,2.6,0.2,6.9-0.8c0,0,4.5,0.6,4.7,4.2C33.7,36.9,28.2,38.1,28.2,38.1z"/>
<path class="st1" d="M22.9,22.9"/>
<circle class="st2" cx="22.9" cy="22.9" r="22.3"/>
</svg>
