<?xml version="1.0" encoding="utf-8"?>
<!-- Generator: Adobe Illustrator 27.4.0, SVG Export Plug-In . SVG Version: 6.00 Build 0)  -->
<svg version="1.1" id="Layer_1" xmlns="http://www.w3.org/2000/svg" xmlns:xlink="http://www.w3.org/1999/xlink" x="0px" y="0px"
	 viewBox="0 0 46.8 46.7" style="enable-background:new 0 0 46.8 46.7;" xml:space="preserve">
<path d="M31.3,28.3c0,0,4.3-1.2,4-5.2c-0.3-3.9-3.7-5.1-3.7-5.1s-1.9-0.9-5.2-0.8l-7.2,0v9.3c0,0,1.3,1.3,3.3,1.3v-9.1
	c0,0,0.6-0.5,3-0.4s5.2,0.4,6.4,1.5c0.9,0.9,1.2,1.6,1.2,3.2c0,1.6-2.1,3.5-4.8,5s-6.3,1.1-6.3,1.1s-6.6-0.7-7.2-9
	c-0.3-4.1,0.8-6.4,1.7-7.8c0,0,2.2-3.5,7.4-3.3c0,0,3.7,0.1,6.9,3.7l2.4,0c0,0-3.1-6-9.6-6.1c-1.9,0-4.9,0.2-7.2,1.4
	c0,0-5.9,3.1-5.8,9.8c0.2,6.7,4.1,10.5,8.7,12l0,7.1c0,0,0,0,0,0.1V40h9.4c0,0,7.6,0.4,7.8-6.4C36.3,33.5,36.7,29.5,31.3,28.3z
	 M28.7,38.6c0,0-4.1,0.6-6.2-0.2v-7.9c0,0,2.7,0.2,7-0.8c0,0,4.5,0.6,4.7,4.2C34.2,37.4,28.7,38.6,28.7,38.6z"/>
<g>
	<path d="M10.5,6.2c0.1-0.1,0.1-0.1,0.2-0.2s0.1-0.2,0.1-0.2s0-0.2,0-0.2c0-0.1-0.1-0.1-0.1-0.2c-0.1-0.1-0.2-0.2-0.3-0.2
		s-0.2,0-0.3,0l0,0c0.1-0.1,0.1-0.2,0.1-0.3c0-0.1,0-0.2-0.1-0.3C9.9,4.6,9.8,4.5,9.8,4.5c-0.1,0-0.2,0-0.2,0c0,0-0.1,0-0.1,0
		c0,0-0.1,0-0.1,0.1S9.2,4.6,9.2,4.7c0,0-0.1,0.1-0.1,0.1L8.4,5.2l1.2,1.6L10.5,6.2z M8.8,5.2l0.4-0.3c0,0,0.1-0.1,0.1-0.1
		c0,0,0.1,0,0.1-0.1c0,0,0.1,0,0.1,0s0.1,0.1,0.1,0.1C9.9,5,9.9,5,9.9,5.1c0,0.1-0.1,0.2-0.2,0.3L9.2,5.7L8.8,5.2z M9.8,5.5
		c0,0,0.1-0.1,0.1-0.1c0.1,0,0.1,0,0.1,0s0.1,0,0.1,0c0,0,0.1,0.1,0.1,0.1c0.1,0.1,0.1,0.2,0.1,0.3c0,0.1-0.1,0.2-0.2,0.3L9.8,6.5
		L9.3,5.9L9.8,5.5z"/>
	<polygon points="41.2,38.1 40.7,37.7 41.3,36.9 41.1,36.8 40.5,37.5 40,37.1 40.6,36.3 40.5,36.1 39.6,37.2 41.2,38.5 42.1,37.4 
		41.9,37.3 	"/>
	<path d="M13.6,4.2l-0.4-0.8l0.6-0.3c0.1,0,0.1,0,0.2,0c0,0,0.1,0,0.1,0s0.1,0,0.1,0.1c0,0,0.1,0.1,0.1,0.1c0,0,0.1,0.1,0.1,0.1
		c0,0,0,0.1,0.1,0.1c0,0,0,0.1,0.1,0.1c0,0,0,0.1,0.1,0.1l0.3-0.1c0,0-0.1,0-0.1-0.1c0,0-0.1-0.1-0.1-0.1c0,0-0.1-0.1-0.1-0.1
		c0,0,0-0.1-0.1-0.1c0,0-0.1-0.1-0.1-0.1c0,0-0.1-0.1-0.1-0.1s-0.1,0-0.1,0c0,0-0.1,0-0.2,0l0,0c0.1-0.1,0.2-0.2,0.2-0.3
		c0-0.1,0-0.2-0.1-0.3C14.1,2.1,14,2,13.9,2s-0.3,0-0.5,0.1l-0.9,0.4l0.9,1.8L13.6,4.2z M12.9,2.6l0.6-0.3c0.1-0.1,0.2-0.1,0.3,0
		c0.1,0,0.1,0.1,0.2,0.2c0,0.1,0,0.1,0,0.2c0,0.1,0,0.1,0,0.1c0,0-0.1,0.1-0.1,0.1S13.8,3,13.7,3l-0.5,0.3L12.9,2.6z"/>
	<path d="M11.5,5.3c0.2,0,0.4,0,0.6-0.2c0.2-0.1,0.4-0.3,0.4-0.5s0-0.4-0.1-0.6l-0.7-1.1l-0.2,0.1l0.7,1.1c0.1,0.2,0.1,0.3,0.1,0.4
		c0,0.1-0.1,0.2-0.3,0.3C11.9,5,11.7,5.1,11.6,5c-0.1,0-0.3-0.1-0.3-0.3l-0.7-1.1l-0.2,0.1L11,4.9C11.2,5.1,11.3,5.3,11.5,5.3z"/>
	<path d="M42.8,35.3c-0.1-0.1-0.2-0.1-0.2-0.1c-0.1,0-0.1,0-0.2,0c-0.1,0-0.1,0.1-0.2,0.1c-0.1,0-0.1,0.1-0.2,0.2
		c-0.1,0.1-0.1,0.1-0.2,0.2c-0.1,0.1-0.1,0.1-0.2,0.1c-0.1,0-0.1,0.1-0.2,0.1c-0.1,0-0.1,0-0.2,0c-0.1,0-0.1-0.1-0.1-0.1
		c0,0,0-0.1,0-0.1c0,0,0-0.1,0-0.1c0,0,0-0.1,0.1-0.1c0.1-0.1,0.2-0.2,0.3-0.2c0.1,0,0.2,0,0.4,0.1l0.1-0.2
		c-0.1-0.1-0.2-0.1-0.3-0.1c-0.1,0-0.2,0-0.3,0c-0.1,0-0.2,0.1-0.2,0.1c-0.1,0.1-0.1,0.1-0.2,0.2c0,0.1-0.1,0.2-0.1,0.2
		c0,0.1,0,0.2,0,0.2c0,0.1,0,0.2,0.1,0.2s0.1,0.1,0.2,0.2c0.1,0.1,0.2,0.1,0.2,0.1c0.1,0,0.1,0,0.2,0c0.1,0,0.1-0.1,0.2-0.1
		c0.1,0,0.1-0.1,0.2-0.2c0.1-0.1,0.1-0.1,0.2-0.2c0.1-0.1,0.1-0.1,0.2-0.1c0.1,0,0.1-0.1,0.2-0.1c0.1,0,0.1,0,0.2,0.1
		c0.1,0,0.1,0.1,0.1,0.1c0,0.1,0,0.1,0,0.2c0,0.1,0,0.1,0,0.2s0,0.1-0.1,0.2c0,0.1-0.1,0.1-0.1,0.2c-0.1,0-0.1,0.1-0.2,0.1
		c-0.1,0-0.1,0-0.2,0s-0.1,0-0.2-0.1l-0.1,0.2c0.1,0.1,0.2,0.1,0.3,0.1c0.1,0,0.2,0,0.3,0s0.2-0.1,0.2-0.1s0.1-0.1,0.2-0.2
		c0-0.1,0.1-0.2,0.1-0.2c0-0.1,0-0.2,0-0.3c0-0.1,0-0.2-0.1-0.3C43,35.4,42.9,35.4,42.8,35.3z"/>
	<polygon points="41.9,34 43.7,35 43.8,34.8 42,33.8 	"/>
	<polygon points="7.4,9 6.3,7.9 6.3,7.9 8.2,8.2 8.4,8 6.9,6.6 6.8,6.7 8,7.9 8,7.9 6,7.6 5.8,7.8 7.3,9.2 	"/>
	<polygon points="4.4,13.3 4.2,13.2 3.7,14.3 3,14 3.5,13 3.3,12.9 2.8,13.9 2.2,13.6 2.7,12.5 2.5,12.4 1.9,13.8 3.7,14.7 	"/>
	<polygon points="2.9,17 1.3,16.4 1.3,16.4 3.1,16.3 3.2,16.1 1.8,14.9 1.8,14.9 3.4,15.5 3.5,15.2 1.6,14.5 1.4,14.9 2.8,16.1 
		1,16.2 0.9,16.5 2.8,17.2 	"/>
	<polygon points="39.4,6.7 39.4,6.7 39,8.7 39.2,8.9 40.7,7.4 40.5,7.2 39.3,8.4 39.3,8.4 39.7,6.4 39.5,6.2 38,7.7 38.2,7.9 	"/>
	<path d="M4.9,10.5c0.1,0.1,0.2,0.1,0.4,0.2c0.1,0,0.3,0.1,0.4,0.1c0.1,0,0.3,0,0.4-0.1c0.1-0.1,0.2-0.2,0.3-0.3
		c0.1-0.1,0.2-0.3,0.2-0.4c0-0.1,0-0.3,0-0.4c0-0.1-0.1-0.2-0.2-0.4S6.2,9,6.1,8.9S5.9,8.8,5.8,8.7S5.5,8.7,5.4,8.7
		c-0.1,0-0.3,0-0.4,0.1C4.9,8.8,4.8,8.9,4.7,9.1C4.6,9.2,4.5,9.3,4.5,9.5c0,0.1,0,0.3,0,0.4c0,0.1,0.1,0.2,0.2,0.4
		C4.7,10.3,4.8,10.4,4.9,10.5z M4.8,9.2C4.9,9.1,5,9,5.1,9c0.1,0,0.2-0.1,0.3-0.1c0.1,0,0.2,0,0.3,0.1S5.9,9.1,6,9.1
		C6,9.2,6.1,9.3,6.2,9.4s0.1,0.2,0.1,0.3c0,0.1,0,0.2,0,0.3c0,0.1-0.1,0.2-0.1,0.3S6,10.4,5.9,10.4c-0.1,0-0.2,0.1-0.3,0.1
		s-0.2,0-0.3-0.1c-0.1,0-0.2-0.1-0.3-0.2s-0.2-0.1-0.2-0.2C4.8,10,4.7,9.9,4.7,9.8c0-0.1,0-0.2,0-0.3C4.7,9.4,4.8,9.3,4.8,9.2z"/>
	<path d="M29.5,0.7l-0.3-0.1l-1.3,1.8l0.3,0.1l0.4-0.5l0.9,0.2l0.1,0.7l0.3,0.1L29.5,0.7z M28.7,1.7l0.6-0.8l0,0l0.1,1L28.7,1.7z"/>
	<path d="M2.3,19.2l-0.5-0.4L2,17.9l0.7-0.1l0.1-0.3l-2.2,0.3l-0.1,0.3l1.8,1.3L2.3,19.2z M1.6,18.7l-0.9-0.6l0,0l1-0.1L1.6,18.7z"
		/>
	<path d="M39.9,38.3c-0.2-0.2-0.5-0.3-0.7-0.3s-0.4,0.1-0.6,0.3l-0.5,0.5l1.5,1.4l0.5-0.5c0.1-0.1,0.2-0.2,0.2-0.3
		c0-0.1,0.1-0.2,0.1-0.4c0-0.1-0.1-0.2-0.1-0.4C40.2,38.6,40.1,38.4,39.9,38.3z M40.1,39.3c0,0,0,0.1-0.1,0.1s-0.1,0.1-0.1,0.1
		l-0.3,0.3l-1.1-1.1l0.3-0.3c0.1-0.1,0.2-0.1,0.2-0.2s0.2,0,0.2,0s0.2,0,0.3,0.1c0.1,0.1,0.2,0.1,0.3,0.2c0.1,0.1,0.2,0.2,0.2,0.3
		c0,0.1,0.1,0.2,0.1,0.2s0,0.1,0,0.2C40.1,39.2,40.1,39.3,40.1,39.3z"/>
	<path d="M46.4,25.8c-0.1,0-0.1,0-0.2,0s-0.1,0-0.2,0c-0.1,0-0.1,0-0.1,0c0,0-0.1,0-0.1,0c0,0-0.1,0-0.1,0.1c0,0-0.1,0.1-0.1,0.1
		l0,0c0-0.1-0.1-0.2-0.2-0.3c-0.1-0.1-0.2-0.1-0.3-0.1c-0.2,0-0.3,0-0.4,0.1c-0.1,0.1-0.2,0.2-0.2,0.4l-0.1,0.9l2,0.3l0-0.3L45.6,27
		l0.1-0.6c0-0.1,0-0.1,0.1-0.1c0,0,0.1-0.1,0.1-0.1c0,0,0.1,0,0.1,0c0,0,0.1,0,0.1,0c0.1,0,0.1,0,0.2,0c0.1,0,0.1,0,0.1,0
		c0,0,0.1,0,0.1,0c0,0,0.1,0,0.1,0l0-0.3c0,0-0.1,0-0.1,0C46.5,25.8,46.4,25.8,46.4,25.8z M45.4,26.4l-0.1,0.5l-0.7-0.1l0.1-0.6
		c0-0.1,0.1-0.2,0.1-0.2c0.1,0,0.2-0.1,0.3,0c0.1,0,0.1,0,0.2,0.1s0.1,0.1,0.1,0.1c0,0,0,0.1,0,0.1C45.4,26.3,45.4,26.3,45.4,26.4z"
		/>
	<path d="M42.8,14.2l0.8-0.4l0.3,0.6c0,0.1,0,0.1,0,0.2c0,0,0,0.1,0,0.1c0,0,0,0.1-0.1,0.1s-0.1,0.1-0.1,0.1c0,0-0.1,0.1-0.1,0.1
		c0,0-0.1,0-0.1,0.1s-0.1,0-0.1,0.1s-0.1,0-0.1,0.1l0.1,0.3c0,0,0-0.1,0.1-0.1c0,0,0.1-0.1,0.1-0.1c0,0,0.1-0.1,0.1-0.1
		c0,0,0.1,0,0.1-0.1c0,0,0.1-0.1,0.1-0.1C44,15,44,15,44,15s0-0.1,0.1-0.1c0,0,0-0.1,0-0.2l0,0c0.1,0.1,0.2,0.2,0.3,0.2
		c0.1,0,0.2,0,0.3-0.1c0.2-0.1,0.2-0.2,0.3-0.3s0-0.3-0.1-0.5l-0.4-0.9l-1.9,0.8L42.8,14.2z M44.4,13.4l0.3,0.6
		c0.1,0.1,0.1,0.2,0,0.3s-0.1,0.1-0.2,0.2c-0.1,0-0.1,0-0.2,0c-0.1,0-0.1,0-0.1-0.1c0,0-0.1-0.1-0.1-0.1c0,0-0.1-0.1-0.1-0.2
		l-0.2-0.5L44.4,13.4z"/>
	<path d="M43.7,16.6c0.1,0.2,0.1,0.3,0.2,0.4c0.1,0.1,0.2,0.2,0.3,0.2s0.2,0.1,0.4,0.1c0.1,0,0.3,0,0.5-0.1c0.3-0.1,0.5-0.3,0.6-0.5
		c0.1-0.2,0.1-0.5,0-0.8l-0.2-0.7l-1.9,0.6L43.7,16.6z M45.3,15.6l0.1,0.4c0,0.1,0.1,0.2,0.1,0.3c0,0.1,0,0.2-0.1,0.3
		c0,0.1-0.1,0.1-0.2,0.2c-0.1,0.1-0.2,0.1-0.3,0.1c-0.1,0-0.2,0.1-0.3,0.1s-0.2,0-0.2,0c-0.1,0-0.1-0.1-0.2-0.1c0,0-0.1-0.1-0.1-0.1
		S44,16.7,44,16.7c0,0,0-0.1,0-0.1l-0.1-0.4L45.3,15.6z"/>
	<polygon points="44.5,19.5 44.7,19.5 44.5,18.3 45.2,18.1 45.4,19.2 45.6,19.2 45.4,18.1 46,18 46.3,19.1 46.5,19.1 46.2,17.6 
		44.2,18.1 	"/>
	<path d="M44,12.1l-1.1,0.7c-0.2,0.1-0.3,0.1-0.4,0.1c-0.1,0-0.2-0.1-0.3-0.3C42,12.4,42,12.3,42,12.1c0-0.1,0.1-0.2,0.3-0.3
		l1.1-0.7l-0.1-0.2l-1.1,0.7c-0.2,0.1-0.4,0.3-0.4,0.5c0,0.2,0,0.4,0.2,0.6c0.1,0.2,0.3,0.4,0.5,0.4c0.2,0.1,0.4,0,0.6-0.1l1.1-0.7
		L44,12.1z"/>
	<polygon points="44.6,20.2 46.2,20 46.2,20.1 44.7,21.3 44.8,21.7 46.8,21.4 46.8,21.1 45.1,21.3 45.1,21.3 46.6,20 46.6,19.7 
		44.6,20 	"/>
	<polygon points="31,1.5 31,1.5 31,3.3 31.2,3.4 32.4,2 32.4,2 31.8,3.6 32.1,3.7 32.8,1.8 32.5,1.7 31.2,3.1 31.2,1.2 30.9,1.1 
		30.1,3 30.4,3.1 	"/>
	<polygon points="34.8,3.1 34.9,2.9 33.6,2.2 32.6,4 33.9,4.7 34,4.5 33,3.9 33.3,3.3 34.3,3.8 34.4,3.6 33.4,3.1 33.7,2.5 	"/>
	<polygon points="45.8,29.1 45.1,28.9 45.3,27.9 45.1,27.9 44.9,28.9 44.3,28.7 44.5,27.7 44.3,27.6 44,28.9 46,29.4 46.3,28.1 
		46.1,28 	"/>
	<path d="M43.6,32.8l0.2,0.1l0.3-0.6c0.1,0,0.2,0.1,0.2,0.1s0.1,0.1,0.1,0.2c0,0.1,0,0.2,0,0.2c0,0.1,0,0.2-0.1,0.3
		c0,0.1-0.1,0.2-0.2,0.2c-0.1,0.1-0.2,0.1-0.2,0.1c-0.1,0-0.2,0-0.3,0c-0.1,0-0.2,0-0.3-0.1c-0.1,0-0.2-0.1-0.3-0.2
		c-0.1-0.1-0.2-0.1-0.2-0.2c-0.1-0.1-0.1-0.2-0.1-0.3c0-0.1,0-0.2,0.1-0.3c0-0.1,0.1-0.1,0.1-0.2c0,0,0.1-0.1,0.1-0.1
		c0.1,0,0.1,0,0.2-0.1c0.1,0,0.1,0,0.2,0l0.1-0.2c-0.1,0-0.2,0-0.3,0c-0.1,0-0.2,0-0.3,0.1c-0.1,0-0.2,0.1-0.2,0.2
		c-0.1,0.1-0.1,0.2-0.2,0.3c-0.1,0.1-0.1,0.3-0.1,0.4c0,0.1,0,0.2,0.1,0.4c0.1,0.1,0.1,0.2,0.2,0.3c0.1,0.1,0.2,0.2,0.4,0.2
		c0.1,0.1,0.2,0.1,0.4,0.1s0.3,0,0.4,0c0.1,0,0.2-0.1,0.3-0.2c0.1-0.1,0.2-0.2,0.2-0.3c0-0.1,0.1-0.2,0.1-0.3s0-0.2-0.1-0.4l0.3,0
		l0.1-0.1l-1-0.5L43.6,32.8z"/>
	<path d="M34.6,5.1l0.5-0.7l0.6,0.4c0.1,0,0.1,0.1,0.1,0.1c0,0,0,0.1,0,0.1c0,0,0,0.1,0,0.1c0,0,0,0.1-0.1,0.1c0,0,0,0.1-0.1,0.1
		c0,0-0.1,0.1-0.1,0.1c0,0,0,0.1-0.1,0.1c0,0,0,0.1,0,0.1l0.3,0.2c0,0,0-0.1,0-0.1c0,0,0-0.1,0-0.1c0,0,0-0.1,0.1-0.1S36,5.4,36,5.3
		c0,0,0-0.1,0.1-0.1s0-0.1,0-0.1c0,0,0-0.1,0-0.1s0-0.1-0.1-0.1l0,0c0.1,0,0.2,0,0.3,0s0.2-0.1,0.3-0.2c0.1-0.1,0.1-0.3,0.1-0.4
		c0-0.1-0.1-0.3-0.3-0.4l-0.8-0.5l-1.1,1.7L34.6,5.1z M35.6,3.6l0.6,0.4c0.1,0.1,0.2,0.2,0.2,0.2c0,0.1,0,0.2-0.1,0.3
		c0,0.1-0.1,0.1-0.1,0.1c0,0-0.1,0-0.1,0c-0.1,0-0.1,0-0.2,0c-0.1,0-0.1-0.1-0.2-0.1l-0.5-0.3L35.6,3.6z"/>
	<path d="M42.6,9.9c0,0,0-0.1-0.1-0.1c0,0-0.1-0.1-0.1-0.1c0,0-0.1-0.1-0.1-0.1l-0.5-0.6l-1.7,1.2l0.6,0.8c0.1,0.1,0.1,0.1,0.2,0.2
		s0.1,0.1,0.2,0.1c0.1,0,0.2,0,0.2,0c0.1,0,0.1-0.1,0.2-0.1c0.1-0.1,0.2-0.2,0.2-0.3c0-0.1,0-0.2,0-0.3l0,0c0.1,0.1,0.2,0.1,0.3,0.1
		c0.1,0,0.2,0,0.3-0.1c0.1-0.1,0.1-0.1,0.2-0.2c0-0.1,0-0.2,0-0.2C42.6,10,42.6,10,42.6,9.9z M41.7,10.8c0,0-0.1,0.1-0.1,0.1
		C41.5,11,41.4,11,41.3,11s-0.2-0.1-0.2-0.2l-0.4-0.6l0.6-0.4l0.4,0.5c0,0,0.1,0.1,0.1,0.1c0,0.1,0,0.1,0,0.2
		C41.7,10.7,41.7,10.7,41.7,10.8z M42.4,10.2c0,0-0.1,0.1-0.1,0.1c-0.1,0.1-0.2,0.1-0.3,0.1s-0.2-0.1-0.3-0.2l-0.3-0.5l0.5-0.4
		l0.3,0.5c0,0,0.1,0.1,0.1,0.1s0,0.1,0,0.1S42.4,10.1,42.4,10.2z"/>
	<polygon points="43.7,29.8 45.3,30.3 45.3,30.3 43.4,30.7 43.3,31 45.2,31.7 45.3,31.4 43.8,30.9 43.8,30.9 45.6,30.5 45.7,30.2 
		43.8,29.6 	"/>
	<path d="M4.8,12.7L4,12.2l0.4-0.6c0-0.1,0.1-0.1,0.1-0.1s0.1,0,0.1,0s0.1,0,0.1,0c0,0,0.1,0,0.1,0c0,0,0.1,0,0.1,0.1
		c0,0,0.1,0,0.1,0.1c0,0,0.1,0,0.1,0.1c0,0,0.1,0,0.1,0l0.2-0.3c0,0-0.1,0-0.1,0c0,0-0.1,0-0.1,0c0,0-0.1,0-0.1-0.1S5,11.3,5,11.2
		c0,0-0.1,0-0.1-0.1s-0.1,0-0.1,0s-0.1,0-0.1,0c0,0-0.1,0.1-0.1,0.1l0,0c0-0.1,0-0.2,0-0.3c0-0.1-0.1-0.2-0.2-0.2
		c-0.1-0.1-0.3-0.1-0.4-0.1c-0.1,0-0.3,0.2-0.4,0.3l-0.5,0.8l1.7,1.1L4.8,12.7z M3.2,11.7l0.4-0.6c0.1-0.1,0.1-0.2,0.2-0.2
		c0.1,0,0.2,0,0.3,0.1c0.1,0,0.1,0.1,0.1,0.1c0,0,0,0.1,0,0.1c0,0.1,0,0.1,0,0.2c0,0.1-0.1,0.1-0.1,0.2l-0.3,0.5L3.2,11.7z"/>
	<polygon points="13.1,42 12.1,43.8 12.3,44 13.3,42.2 	"/>
	<polygon points="16.7,45.4 16.7,45.4 16.3,43.5 16,43.4 15.4,45.4 15.6,45.4 16.1,43.9 16.1,43.9 16.6,45.8 16.8,45.8 17.5,43.9 
		17.2,43.8 	"/>
	<polygon points="17.7,46.1 19,46.3 19,46.1 18,45.9 18.1,45.2 19.1,45.4 19.2,45.2 18.2,45 18.3,44.3 19.4,44.6 19.4,44.3 
		18.1,44.1 	"/>
	<polygon points="18.8,2.1 17.7,2.4 17.5,1.8 18.6,1.5 18.5,1.3 17.5,1.5 17.3,0.9 18.5,0.6 18.4,0.4 17,0.7 17.5,2.7 18.9,2.4 	"/>
	<path d="M14.9,42.9c-0.1-0.1-0.2-0.1-0.3-0.2c-0.1-0.1-0.3-0.1-0.4-0.1c-0.1,0-0.2,0-0.4,0.1c-0.1,0.1-0.2,0.1-0.3,0.3
		c-0.1,0.1-0.2,0.2-0.2,0.4c-0.1,0.1-0.1,0.2-0.1,0.4c0,0.1,0,0.3,0,0.4c0,0.1,0.1,0.2,0.2,0.3s0.2,0.2,0.3,0.2
		c0.1,0,0.2,0.1,0.3,0.1c0.1,0,0.2,0,0.4-0.1l0,0.3l0.1,0.1l0.4-1l-0.8-0.3l-0.1,0.2l0.6,0.3c0,0.1-0.1,0.2-0.1,0.2
		c-0.1,0.1-0.1,0.1-0.2,0.1c-0.1,0-0.2,0-0.2,0c-0.1,0-0.2,0-0.3-0.1c-0.1,0-0.2-0.1-0.2-0.2c-0.1-0.1-0.1-0.2-0.1-0.2
		c0-0.1,0-0.2,0-0.3c0-0.1,0-0.2,0.1-0.3c0-0.1,0.1-0.2,0.2-0.3c0.1-0.1,0.1-0.2,0.2-0.2c0.1-0.1,0.2-0.1,0.3-0.1
		c0.1,0,0.2,0,0.3,0.1c0.1,0,0.1,0.1,0.2,0.1c0.1,0,0.1,0.1,0.1,0.1c0,0.1,0.1,0.1,0.1,0.2s0,0.1,0,0.2l0.2,0.1c0-0.1,0-0.2,0-0.3
		c0-0.1,0-0.2-0.1-0.3C15,43.1,15,43,14.9,42.9z"/>
	<polygon points="34,41.8 34.5,42.6 33.6,43.1 33.2,42.3 32.9,42.5 33.9,44.3 34.1,44.1 33.7,43.3 34.6,42.8 35,43.6 35.3,43.5 
		34.3,41.7 	"/>
	<path d="M16.4,3c0.1-0.1,0.2-0.2,0.2-0.3c0-0.1,0.1-0.2,0.1-0.4c0-0.1,0-0.3-0.1-0.5c-0.1-0.3-0.3-0.5-0.5-0.6
		c-0.2-0.1-0.5-0.1-0.8,0l-0.7,0.2l0.7,1.9L16,3.2C16.2,3.1,16.3,3.1,16.4,3z M15.5,3.1L15,1.6l0.4-0.2c0.1,0,0.2-0.1,0.3-0.1
		s0.2,0,0.3,0.1c0.1,0,0.1,0.1,0.2,0.2c0.1,0.1,0.1,0.2,0.1,0.3c0,0.1,0.1,0.2,0.1,0.3s0,0.2,0,0.2c0,0.1,0,0.1-0.1,0.2
		c0,0-0.1,0.1-0.1,0.1c0,0-0.1,0.1-0.1,0.1S16,3,16,3L15.5,3.1z"/>
	<polygon points="19.4,0.6 20.8,2.1 21.1,2 20.8,0 20.5,0 20.7,1.7 20.7,1.7 19.4,0.2 19.1,0.2 19.4,2.3 19.7,2.2 19.4,0.6 	"/>
	<path d="M27.8,1.6l-0.3,0c0,0.1,0,0.2-0.1,0.2c0,0.1-0.1,0.1-0.2,0.2S27.1,2,27,2c-0.1,0-0.2,0-0.3,0c-0.1,0-0.2-0.1-0.3-0.1
		c-0.1-0.1-0.1-0.1-0.2-0.2c0-0.1-0.1-0.2-0.1-0.3c0-0.1,0-0.2,0-0.3c0-0.1,0-0.2,0.1-0.3c0-0.1,0.1-0.2,0.2-0.2
		c0.1-0.1,0.2-0.1,0.2-0.1s0.2,0,0.3,0c0.1,0,0.3,0.1,0.4,0.2s0.1,0.2,0.2,0.4l0.3,0c0-0.1,0-0.2-0.1-0.3c0-0.1-0.1-0.2-0.2-0.2
		c-0.1-0.1-0.1-0.1-0.2-0.2s-0.2-0.1-0.3-0.1c-0.2,0-0.3,0-0.4,0c-0.1,0-0.2,0.1-0.3,0.2s-0.2,0.2-0.2,0.3C26,0.7,26,0.9,25.9,1
		c0,0.1,0,0.3,0,0.4c0,0.1,0.1,0.3,0.1,0.4s0.2,0.2,0.3,0.3s0.2,0.1,0.4,0.1c0.3,0,0.5,0,0.7-0.1C27.6,2,27.7,1.8,27.8,1.6z"/>
	<path d="M32.3,42.9c-0.1-0.1-0.3-0.1-0.5,0l-0.8,0.3l0.8,1.9l0.2-0.1l-0.3-0.8l0.5-0.2c0.2-0.1,0.3-0.2,0.3-0.3c0-0.1,0-0.3,0-0.5
		C32.6,43.1,32.5,43,32.3,42.9z M32.4,43.7c0,0.1-0.1,0.2-0.3,0.2l-0.5,0.2l-0.3-0.7l0.5-0.2c0.1-0.1,0.2-0.1,0.3,0
		c0.1,0,0.2,0.1,0.2,0.2C32.4,43.5,32.5,43.6,32.4,43.7z"/>
	<path d="M29.7,43.8l-0.1,2.2l0.2-0.1l0-0.7l0.8-0.2l0.4,0.5l0.3-0.1l-1.3-1.7L29.7,43.8z M29.8,45l0-1l0,0l0.6,0.8L29.8,45z"/>
	<path d="M28.9,45.8c0,0,0-0.1,0-0.1c0,0,0-0.1,0-0.1c0,0,0-0.1-0.1-0.1c0,0,0-0.1-0.1-0.1s-0.1-0.1-0.1-0.1c0,0-0.1,0-0.1,0l0,0
		c0.1-0.1,0.2-0.1,0.2-0.2c0-0.1,0-0.2,0-0.3c0-0.2-0.1-0.3-0.2-0.4c-0.1-0.1-0.3-0.1-0.4-0.1l-0.9,0.2l0.4,2l0.3-0.1l-0.2-0.9
		l0.6-0.1c0.1,0,0.1,0,0.2,0c0,0,0.1,0,0.1,0.1c0,0,0.1,0.1,0.1,0.1c0,0,0,0.1,0.1,0.1c0,0,0,0.1,0,0.1c0,0,0,0.1,0,0.1
		c0,0,0,0.1,0,0.1c0,0,0,0.1,0.1,0.1l0.3-0.1C29,46,29,46,29,46C28.9,45.9,28.9,45.9,28.9,45.8z M28.4,45c0,0-0.1,0.1-0.1,0.1
		c-0.1,0-0.1,0-0.2,0l-0.5,0.1l-0.1-0.7l0.6-0.1c0.1,0,0.2,0,0.3,0c0.1,0.1,0.1,0.1,0.1,0.2c0,0.1,0,0.1,0,0.2
		C28.4,44.9,28.4,45,28.4,45z"/>
	<path d="M25.7,45.5l0,0.2l0.6-0.1c0,0.1,0,0.2,0,0.3c0,0.1-0.1,0.2-0.1,0.2c0,0.1-0.1,0.1-0.2,0.2c-0.1,0-0.2,0.1-0.3,0.1
		c-0.1,0-0.2,0-0.3,0s-0.2-0.1-0.2-0.2s-0.1-0.2-0.2-0.2c0-0.1-0.1-0.2-0.1-0.3c0-0.1,0-0.2,0-0.3c0-0.1,0-0.2,0.1-0.3
		c0-0.1,0.1-0.2,0.2-0.2c0.1-0.1,0.2-0.1,0.3-0.1c0.1,0,0.1,0,0.2,0c0.1,0,0.1,0,0.2,0.1s0.1,0.1,0.1,0.1c0,0.1,0.1,0.1,0.1,0.2
		l0.3,0c0-0.1-0.1-0.2-0.1-0.3c-0.1-0.1-0.1-0.1-0.2-0.2c-0.1,0-0.2-0.1-0.3-0.1c-0.1,0-0.2,0-0.3,0c-0.2,0-0.3,0.1-0.4,0.1
		c-0.1,0.1-0.2,0.2-0.3,0.3c-0.1,0.1-0.1,0.2-0.1,0.4c0,0.1,0,0.3,0,0.4c0,0.1,0,0.3,0.1,0.4c0.1,0.1,0.1,0.2,0.2,0.3
		c0.1,0.1,0.2,0.2,0.3,0.2c0.1,0,0.2,0.1,0.4,0c0.1,0,0.2,0,0.3-0.1c0.1-0.1,0.2-0.1,0.3-0.3l0.1,0.2l0.2,0l-0.1-1.1L25.7,45.5z"/>
	<path d="M20.9,44.6L20,44.4l-0.3,2l0.3,0l0.1-0.9l0.6,0.1c0.1,0,0.1,0,0.1,0c0,0,0.1,0.1,0.1,0.1c0,0,0,0.1,0,0.1c0,0,0,0.1,0,0.1
		c0,0.1,0,0.1,0,0.2c0,0.1,0,0.1,0,0.1c0,0,0,0.1,0,0.1c0,0,0,0.1,0,0.1l0.3,0c0,0,0-0.1,0-0.1s0-0.1,0-0.1c0-0.1,0-0.1,0-0.2
		c0-0.1,0-0.1,0-0.2c0,0,0-0.1,0-0.1c0,0,0-0.1,0-0.1c0,0,0-0.1-0.1-0.1c0,0-0.1-0.1-0.1-0.1l0,0c0.1,0,0.2-0.1,0.3-0.2
		c0.1-0.1,0.1-0.2,0.1-0.3c0-0.2,0-0.3-0.1-0.4C21.2,44.6,21.1,44.6,20.9,44.6z M21.1,45.4c0,0-0.1,0.1-0.1,0.1c0,0-0.1,0-0.1,0
		c-0.1,0-0.1,0-0.2,0l-0.5-0.1l0.1-0.7l0.6,0.1c0.1,0,0.2,0.1,0.2,0.1c0,0.1,0.1,0.2,0,0.3C21.1,45.2,21.1,45.3,21.1,45.4z"/>
	<rect x="3.8" y="35.7" transform="matrix(0.8312 -0.556 0.556 0.8312 -19.0918 8.7035)" width="2" height="0.3"/>
	<path d="M1.1,29.2c0.1,0,0.1,0,0.1,0c0,0,0.1,0,0.1-0.1c0,0,0.1,0,0.1-0.1c0,0,0.1-0.1,0.1-0.1c0,0,0-0.1,0-0.1l0,0
		c0.1,0.1,0.1,0.2,0.2,0.2c0.1,0,0.2,0,0.3,0c0.2,0,0.3-0.1,0.3-0.2c0.1-0.1,0.1-0.3,0-0.5l-0.2-0.9l-2,0.5l0.1,0.2l0.9-0.2l0.1,0.6
		c0,0.1,0,0.1,0,0.2c0,0,0,0.1-0.1,0.1c0,0-0.1,0.1-0.1,0.1c0,0-0.1,0-0.1,0.1c0,0-0.1,0-0.1,0.1c-0.1,0-0.1,0-0.1,0
		c0,0-0.1,0-0.1,0c0,0-0.1,0-0.1,0.1l0.1,0.3c0,0,0.1-0.1,0.1-0.1c0,0,0.1,0,0.1-0.1C1,29.2,1.1,29.2,1.1,29.2z M2.2,27.7l0.1,0.6
		c0,0.1,0,0.2,0,0.3c-0.1,0.1-0.1,0.1-0.2,0.1c-0.1,0-0.1,0-0.2,0c-0.1,0-0.1,0-0.1-0.1c0,0-0.1-0.1-0.1-0.1c0-0.1,0-0.1-0.1-0.2
		l-0.1-0.5L2.2,27.7z"/>
	<path d="M3.1,30l-2.2-0.1L1,30.1l0.7,0l0.3,0.8l-0.5,0.4l0.1,0.3l1.7-1.4L3.1,30z M2.1,30.8l-0.2-0.6l1,0l0,0L2.1,30.8z"/>
	<path d="M37.5,41c0,0.1,0.1,0.1,0.1,0.2c0,0.1,0,0.1,0,0.2c0,0.1,0,0.1-0.1,0.2c0,0.1-0.1,0.1-0.2,0.2c-0.1,0.1-0.2,0.1-0.3,0.1
		c-0.1,0-0.2,0-0.3,0c-0.1,0-0.2-0.1-0.3-0.1c-0.1-0.1-0.2-0.1-0.2-0.2c-0.1-0.1-0.1-0.2-0.2-0.3c0-0.1-0.1-0.2-0.1-0.3
		c0-0.1,0-0.2,0-0.3c0-0.1,0.1-0.2,0.2-0.2c0.1-0.1,0.2-0.1,0.3-0.1c0.1,0,0.2,0,0.4,0.1l0.2-0.2c-0.1-0.1-0.2-0.1-0.2-0.2
		c-0.1,0-0.2-0.1-0.3-0.1c-0.1,0-0.2,0-0.3,0c-0.1,0-0.2,0.1-0.3,0.1c-0.1,0.1-0.2,0.2-0.3,0.3c-0.1,0.1-0.1,0.2-0.1,0.4
		s0,0.2,0.1,0.4c0,0.1,0.1,0.3,0.2,0.4s0.2,0.2,0.3,0.3c0.1,0.1,0.2,0.1,0.3,0.2c0.1,0,0.2,0,0.4,0c0.1,0,0.2-0.1,0.4-0.2
		c0.2-0.1,0.3-0.3,0.3-0.5c0-0.2,0-0.4-0.2-0.6L37.5,41z"/>
	<path d="M1.2,26.1l-0.2,0l0.1,0.6c-0.1,0-0.2,0-0.3,0c-0.1,0-0.2,0-0.2-0.1c-0.1,0-0.1-0.1-0.2-0.2c0-0.1-0.1-0.2-0.1-0.3
		c0-0.1,0-0.2,0-0.3c0-0.1,0.1-0.2,0.2-0.2c0.1-0.1,0.1-0.1,0.2-0.2c0.1,0,0.2-0.1,0.3-0.1c0.1,0,0.2,0,0.3,0c0.1,0,0.2,0,0.3,0.1
		c0.1,0,0.2,0.1,0.2,0.2C2,25.7,2,25.8,2,26c0,0.1,0,0.1,0,0.2c0,0.1,0,0.1-0.1,0.2c0,0.1-0.1,0.1-0.1,0.1c-0.1,0-0.1,0.1-0.2,0.1
		l0,0.3c0.1,0,0.2-0.1,0.3-0.1c0.1-0.1,0.1-0.1,0.2-0.2s0.1-0.2,0.1-0.3c0-0.1,0-0.2,0-0.3c0-0.2-0.1-0.3-0.1-0.4
		c-0.1-0.1-0.2-0.2-0.3-0.3c-0.1-0.1-0.2-0.1-0.4-0.1c-0.1,0-0.3,0-0.4,0c-0.1,0-0.3,0.1-0.4,0.1c-0.1,0.1-0.2,0.1-0.3,0.2
		c-0.1,0.1-0.1,0.2-0.2,0.3c0,0.1-0.1,0.2,0,0.4c0,0.1,0.1,0.2,0.1,0.3c0.1,0.1,0.1,0.2,0.3,0.3l-0.2,0.1l0,0.2l1.1-0.1L1.2,26.1z"
		/>
	<path d="M38.5,6.2c0-0.1,0.1-0.3,0.1-0.4c0-0.1,0-0.3-0.1-0.4c-0.1-0.1-0.2-0.2-0.3-0.3c-0.1-0.1-0.3-0.2-0.4-0.2
		c-0.1,0-0.3,0-0.4,0c-0.1,0-0.2,0.1-0.4,0.1c-0.1,0.1-0.2,0.2-0.3,0.3c-0.1,0.1-0.2,0.2-0.2,0.4c0,0.1-0.1,0.3-0.1,0.4
		c0,0.1,0,0.3,0.1,0.4c0.1,0.1,0.2,0.2,0.3,0.3c0.1,0.1,0.3,0.2,0.4,0.2s0.3,0,0.4,0c0.1,0,0.2-0.1,0.4-0.1s0.2-0.2,0.3-0.3
		C38.4,6.4,38.5,6.3,38.5,6.2z M38.1,6.4c-0.1,0.1-0.1,0.2-0.2,0.2c-0.1,0.1-0.2,0.1-0.3,0.1c-0.1,0-0.2,0-0.3,0S37.1,6.6,37,6.6
		c-0.1-0.1-0.2-0.2-0.2-0.3S36.7,6.1,36.7,6c0-0.1,0-0.2,0.1-0.3c0-0.1,0.1-0.2,0.2-0.3c0.1-0.1,0.1-0.2,0.2-0.2
		c0.1-0.1,0.2-0.1,0.3-0.1c0.1,0,0.2,0,0.3,0s0.2,0.1,0.3,0.2s0.2,0.2,0.2,0.3c0,0.1,0.1,0.2,0.1,0.3s0,0.2-0.1,0.3
		C38.2,6.2,38.1,6.3,38.1,6.4z"/>
	<path d="M3.1,33c0.1,0,0.3,0,0.5,0c0.2-0.1,0.3-0.2,0.3-0.3c0.1-0.1,0-0.3,0-0.5l-0.3-0.8l-1.9,0.8l0.1,0.2l0.8-0.3l0.2,0.5
		C2.9,32.8,3,32.9,3.1,33z M3.5,31.7l0.2,0.5c0.1,0.1,0.1,0.2,0,0.3c0,0.1-0.1,0.2-0.2,0.2c-0.1,0-0.2,0.1-0.3,0
		c-0.1,0-0.2-0.1-0.2-0.3L2.8,32L3.5,31.7z"/>
	<path d="M0.5,21.3c0.1,0.1,0.3,0.1,0.4,0.1c0.1,0,0.3,0,0.4,0c0.1,0,0.3-0.1,0.4-0.1C1.8,21.2,1.9,21.1,2,21
		c0.1-0.1,0.1-0.3,0.1-0.4c0-0.3,0-0.5-0.1-0.7c-0.1-0.2-0.3-0.3-0.6-0.3l0,0.3c0.1,0,0.2,0,0.2,0.1s0.1,0.1,0.2,0.1
		c0,0.1,0.1,0.1,0.1,0.2s0,0.2,0,0.3c0,0.1-0.1,0.2-0.1,0.3C1.7,21,1.7,21,1.6,21.1c-0.1,0-0.2,0.1-0.3,0.1s-0.2,0-0.3,0
		c-0.1,0-0.2,0-0.3-0.1c-0.1,0-0.2-0.1-0.2-0.2c-0.1-0.1-0.1-0.1-0.2-0.2c0-0.1,0-0.2,0-0.3c0-0.1,0.1-0.3,0.2-0.4
		c0.1-0.1,0.2-0.2,0.4-0.2l0-0.3c-0.1,0-0.2,0-0.3,0.1c-0.1,0-0.2,0.1-0.2,0.2c-0.1,0.1-0.1,0.2-0.2,0.2S0,20.2,0,20.3
		c0,0.2,0,0.3,0,0.4c0,0.1,0.1,0.2,0.2,0.3C0.3,21.2,0.4,21.3,0.5,21.3z"/>
	<rect x="35.4" y="41.1" transform="matrix(0.839 -0.5441 0.5441 0.839 -17.2114 26.1061)" width="0.3" height="2"/>
	<polygon points="5.1,34.3 4.3,34.7 3.8,33.9 4.6,33.4 4.4,33.2 2.6,34.2 2.8,34.4 3.6,34 4.1,34.9 3.3,35.3 3.4,35.5 5.2,34.5 	"/>
	<polygon points="9.8,40.2 10.7,40.8 10.8,40.6 9.8,39.8 8.5,41.4 9.6,42.3 9.7,42.1 8.9,41.4 9.3,40.9 10.1,41.5 10.2,41.3 
		9.4,40.7 	"/>
	<path d="M9,39.5c0-0.2-0.1-0.4-0.3-0.6l-0.5-0.5l-1.4,1.5l0.5,0.5c0.1,0.1,0.2,0.2,0.4,0.2c0.1,0,0.2,0.1,0.4,0
		c0.1,0,0.2-0.1,0.4-0.1c0.1-0.1,0.2-0.2,0.4-0.3C8.9,39.9,9,39.7,9,39.5z M8.4,40c-0.1,0.1-0.2,0.2-0.2,0.2c-0.1,0-0.2,0.1-0.2,0.1
		c-0.1,0-0.1,0-0.2,0c-0.1,0-0.1,0-0.2,0c0,0-0.1,0-0.1-0.1c0,0-0.1,0-0.1-0.1l-0.3-0.3l1.1-1.2L8.5,39c0.1,0.1,0.1,0.2,0.2,0.2
		c0,0.1,0,0.2,0,0.2c0,0.1,0,0.2-0.1,0.3C8.6,39.8,8.5,39.9,8.4,40z"/>
	<path d="M6.8,37c0-0.1,0-0.2,0-0.3c0-0.1-0.1-0.2-0.1-0.3c-0.1-0.1-0.2-0.2-0.3-0.3c-0.1-0.1-0.2-0.1-0.4-0.1c-0.1,0-0.2,0-0.4,0.1
		c-0.1,0-0.3,0.1-0.4,0.2c-0.1,0.1-0.2,0.2-0.3,0.3c-0.1,0.1-0.1,0.2-0.2,0.3c0,0.1,0,0.2,0,0.4c0,0.1,0.1,0.2,0.2,0.4
		c0.2,0.2,0.3,0.3,0.5,0.3s0.4,0,0.6-0.2l-0.2-0.2c-0.1,0-0.1,0.1-0.2,0.1c-0.1,0-0.1,0-0.2,0c-0.1,0-0.1,0-0.2-0.1
		c-0.1,0-0.1-0.1-0.2-0.1C5.1,37.6,5,37.5,5,37.4c0-0.1,0-0.2,0-0.3c0-0.1,0.1-0.2,0.1-0.3c0.1-0.1,0.1-0.2,0.2-0.2
		c0.1-0.1,0.2-0.1,0.3-0.2s0.2-0.1,0.3-0.1c0.1,0,0.2,0,0.3,0c0.1,0,0.2,0.1,0.2,0.2c0.1,0.1,0.1,0.2,0.1,0.3c0,0.1,0,0.2-0.1,0.4
		l0.2,0.2c0.1-0.1,0.1-0.2,0.2-0.2C6.8,37.2,6.8,37.1,6.8,37z"/>
	<path d="M12.1,42.2c0.1-0.1,0.1-0.2,0.1-0.3c0-0.1,0-0.2,0-0.3c0-0.1-0.1-0.2-0.1-0.2c-0.1-0.1-0.1-0.1-0.2-0.2
		c-0.1,0-0.2-0.1-0.2-0.1c-0.1,0-0.2,0-0.2,0c-0.1,0-0.2,0-0.2,0.1c-0.1,0-0.1,0.1-0.2,0.2c-0.1,0.1-0.1,0.2-0.1,0.2s0,0.1,0,0.2
		c0,0.1,0.1,0.1,0.1,0.2c0,0.1,0.1,0.1,0.2,0.2c0.1,0.1,0.1,0.1,0.2,0.2c0.1,0.1,0.1,0.1,0.1,0.2c0,0.1,0.1,0.1,0.1,0.2
		c0,0.1,0,0.1,0,0.2c0,0.1-0.1,0.1-0.1,0.1c-0.1,0-0.1,0-0.2,0c-0.1,0-0.1,0-0.2,0c-0.1,0-0.1,0-0.2-0.1c-0.1,0-0.1-0.1-0.2-0.1
		c0-0.1-0.1-0.1-0.1-0.2c0-0.1,0-0.1,0-0.2c0-0.1,0-0.1,0.1-0.2l-0.2-0.1c-0.1,0.1-0.1,0.2-0.1,0.3c0,0.1,0,0.2,0,0.3
		c0,0.1,0.1,0.2,0.1,0.2c0.1,0.1,0.1,0.1,0.2,0.2c0.1,0,0.2,0.1,0.2,0.1c0.1,0,0.2,0,0.3,0c0.1,0,0.2,0,0.3-0.1
		c0.1,0,0.2-0.1,0.2-0.2c0.1-0.1,0.1-0.2,0.1-0.2c0-0.1,0-0.1,0-0.2c0-0.1-0.1-0.1-0.1-0.2c0-0.1-0.1-0.1-0.2-0.2
		c-0.1-0.1-0.1-0.1-0.2-0.2c-0.1-0.1-0.1-0.1-0.1-0.2c0-0.1-0.1-0.1-0.1-0.2c0-0.1,0-0.1,0-0.2c0-0.1,0.1-0.1,0.1-0.1
		c0,0,0.1,0,0.1,0c0,0,0.1,0,0.1,0s0.1,0,0.1,0.1c0.1,0.1,0.2,0.2,0.2,0.3c0,0.1,0,0.2,0,0.4L12.1,42.2z"/>
</g>
<path d="M45.8,22.7c-0.4,0-0.7,0.3-0.7,0.7c0,0.4,0.3,0.7,0.7,0.7c0.4,0,0.7-0.3,0.7-0.7C46.4,23,46.1,22.7,45.8,22.7z"/>
<path d="M1,22.7c-0.4,0-0.7,0.3-0.7,0.7C0.3,23.7,0.6,24,1,24c0.4,0,0.7-0.3,0.7-0.7C1.6,23,1.3,22.7,1,22.7z"/>
<path d="M23.4,0.3c-0.4,0-0.7,0.3-0.7,0.7c0,0.4,0.3,0.7,0.7,0.7S24,1.3,24,1C24,0.6,23.7,0.3,23.4,0.3z"/>
<path d="M23.4,45.1c-0.4,0-0.7,0.3-0.7,0.7c0,0.4,0.3,0.7,0.7,0.7s0.7-0.3,0.7-0.7C24,45.4,23.7,45.1,23.4,45.1z"/>
</svg>
